<svg width="24" height="24" viewBox="0 0 24 24" fill="none" xmlns="http://www.w3.org/2000/svg">
<path fill-rule="evenodd" clip-rule="evenodd" d="M19.2852 12.645C19.9922 11.9268 20.385 10.9571 20.3772 9.94931C20.3693 8.94149 19.9614 7.97808 19.2432 7.27101C18.8876 6.92091 18.4665 6.64427 18.0039 6.45691C17.5414 6.26955 17.0465 6.17512 16.5475 6.17902C15.5397 6.18689 14.5762 6.5948 13.8692 7.31301C13.6772 7.50501 13.4332 7.74068 13.1372 8.02001L12.3142 8.79501L11.4912 8.02001C11.1945 7.74001 10.9502 7.50434 10.7582 7.31301C10.0455 6.60038 9.079 6.20002 8.07118 6.20002C7.06336 6.20002 6.09681 6.60038 5.38418 7.31301C3.91618 8.78201 3.89918 11.157 5.33018 12.633L12.3142 19.617L19.2852 12.645ZM4.53518 6.46501C4.99949 6.00058 5.55074 5.63216 6.15746 5.38081C6.76417 5.12945 7.41446 5.00008 8.07118 5.00008C8.7279 5.00008 9.37819 5.12945 9.9849 5.38081C10.5916 5.63216 11.1429 6.00058 11.6072 6.46501C11.7892 6.64768 12.0248 6.87501 12.3142 7.14701C12.6022 6.87501 12.8378 6.64734 13.0212 6.46401C13.9517 5.51918 15.2194 4.98269 16.5455 4.97256C17.8716 4.96243 19.1473 5.4795 20.0922 6.41001C21.037 7.34052 21.5735 8.60826 21.5836 9.93433C21.5938 11.2604 21.0767 12.5362 20.1462 13.481L13.0212 20.607C12.8336 20.7945 12.5793 20.8998 12.3142 20.8998C12.049 20.8998 11.7947 20.7945 11.6072 20.607L4.48018 13.48C3.56622 12.5374 3.05969 11.2731 3.06998 9.96024C3.08027 8.64734 3.60655 7.39117 4.53518 6.46301V6.46501Z" fill="#727272"/>
</svg>
