<svg width="24" height="24" viewBox="0 0 24 24" fill="none" xmlns="http://www.w3.org/2000/svg">
<path d="M3 4.503C3.00001 4.22791 3.07567 3.95811 3.21871 3.72313C3.36174 3.48814 3.56665 3.29702 3.811 3.17066C4.05536 3.0443 4.32976 2.98757 4.60419 3.00668C4.87862 3.02579 5.14251 3.12 5.367 3.279L15.867 10.7235C16.062 10.8614 16.2213 11.0439 16.3316 11.2558C16.4419 11.4677 16.4999 11.7029 16.501 11.9418C16.502 12.1807 16.446 12.4163 16.3375 12.6292C16.2291 12.842 16.0714 13.0259 15.8775 13.1655L5.3775 20.721C5.1535 20.8826 4.88924 20.9792 4.61384 21.0001C4.33845 21.0211 4.06261 20.9656 3.81674 20.8398C3.57087 20.714 3.3645 20.5227 3.22039 20.2871C3.07627 20.0515 3.00001 19.7807 3 19.5045V4.503ZM21 3.75C21 3.55109 20.921 3.36032 20.7803 3.21967C20.6397 3.07902 20.4489 3 20.25 3C20.0511 3 19.8603 3.07902 19.7197 3.21967C19.579 3.36032 19.5 3.55109 19.5 3.75V20.25C19.5 20.4489 19.579 20.6397 19.7197 20.7803C19.8603 20.921 20.0511 21 20.25 21C20.4489 21 20.6397 20.921 20.7803 20.7803C20.921 20.6397 21 20.4489 21 20.25V3.75Z" fill="#DEDEDE"/>
</svg>
