<svg width="24" height="24" viewBox="0 0 24 24" fill="none" xmlns="http://www.w3.org/2000/svg">
<path d="M21 4.503C21 4.22791 20.9243 3.95811 20.7813 3.72313C20.6383 3.48814 20.4334 3.29702 20.189 3.17066C19.9446 3.0443 19.6702 2.98757 19.3958 3.00668C19.1214 3.02579 18.8575 3.12 18.633 3.279L8.133 10.7235C7.93795 10.8614 7.77867 11.0439 7.6684 11.2558C7.55813 11.4677 7.50006 11.7029 7.49904 11.9418C7.49801 12.1807 7.55405 12.4163 7.66249 12.6292C7.77094 12.842 7.92865 13.0259 8.1225 13.1655L18.6225 20.721C18.8465 20.8826 19.1108 20.9792 19.3862 21.0001C19.6616 21.0211 19.9374 20.9656 20.1833 20.8398C20.4291 20.714 20.6355 20.5227 20.7796 20.2871C20.9237 20.0515 21 19.7807 21 19.5045V4.503ZM3 3.75C3 3.55109 3.07902 3.36032 3.21967 3.21967C3.36032 3.07902 3.55109 3 3.75 3C3.94891 3 4.13968 3.07902 4.28033 3.21967C4.42098 3.36032 4.5 3.55109 4.5 3.75V20.25C4.5 20.4489 4.42098 20.6397 4.28033 20.7803C4.13968 20.921 3.94891 21 3.75 21C3.55109 21 3.36032 20.921 3.21967 20.7803C3.07902 20.6397 3 20.4489 3 20.25V3.75Z" fill="#DEDEDE"/>
</svg>
