<svg width="24" height="24" viewBox="0 0 24 24" fill="none" xmlns="http://www.w3.org/2000/svg">
<path d="M14.704 3.443C14.895 3.668 15 3.954 15 4.25V19.752C15 19.9905 14.9319 20.224 14.8035 20.425C14.6752 20.626 14.4921 20.786 14.2757 20.8863C14.0594 20.9866 13.8188 21.0229 13.5825 20.991C13.3462 20.959 13.124 20.8601 12.942 20.706L7.975 16.5H4.25C3.65326 16.5 3.08097 16.263 2.65901 15.841C2.23705 15.419 2 14.8467 2 14.25V9.75C2 9.15327 2.23705 8.58097 2.65901 8.15901C3.08097 7.73706 3.65326 7.5 4.25 7.5H7.975L12.943 3.296C13.1961 3.08209 13.5237 2.97741 13.8539 3.00498C14.1841 3.03254 14.4899 3.19009 14.704 3.443ZM17.104 8.64C17.2738 8.53671 17.4776 8.50502 17.6707 8.5519C17.8638 8.59877 18.0305 8.72038 18.134 8.89C18.708 9.83 18.996 10.882 18.996 12.03C18.996 13.178 18.708 14.231 18.134 15.171C18.0841 15.2579 18.0174 15.3339 17.9376 15.3946C17.8579 15.4553 17.7668 15.4994 17.6698 15.5243C17.5727 15.5492 17.4717 15.5544 17.3726 15.5395C17.2735 15.5247 17.1783 15.4902 17.0928 15.438C17.0073 15.3858 16.9331 15.317 16.8746 15.2357C16.8161 15.1543 16.7745 15.0621 16.7522 14.9644C16.7299 14.8667 16.7275 14.7656 16.745 14.6669C16.7624 14.5682 16.7995 14.4741 16.854 14.39C17.282 13.688 17.496 12.907 17.496 12.03C17.496 11.153 17.282 10.373 16.854 9.671C16.7507 9.50123 16.719 9.2974 16.7659 9.10428C16.8128 8.91116 16.9344 8.74354 17.104 8.64Z" fill="#DEDEDE"/>
</svg>
