<svg width="24" height="24" viewBox="0 0 24 24" fill="none" xmlns="http://www.w3.org/2000/svg">
<path d="M14.395 3.6072C14.395 2.5596 13.147 2.0148 12.379 2.7276L7.73262 7.0392C7.62178 7.14236 7.47604 7.1998 7.32462 7.2H4.19502C3.71763 7.2 3.25979 7.38964 2.92223 7.72721C2.58466 8.06478 2.39502 8.52261 2.39502 9V15C2.39502 15.4774 2.58466 15.9352 2.92223 16.2728C3.25979 16.6104 3.71763 16.8 4.19502 16.8H7.32462C7.47587 16.7999 7.6216 16.8569 7.73262 16.9596L12.379 21.2724C13.147 21.984 14.395 21.4404 14.395 20.3928V3.6072ZM15.7702 9.1752C15.826 9.11933 15.8922 9.07499 15.9651 9.04475C16.038 9.0145 16.1161 8.99893 16.195 8.99893C16.2739 8.99893 16.3521 9.0145 16.425 9.04475C16.4979 9.07499 16.5641 9.11933 16.6198 9.1752L18.595 11.1516L20.5702 9.1752C20.6827 9.06254 20.8354 8.99918 20.9946 8.99907C21.0734 8.99901 21.1515 9.01449 21.2244 9.0446C21.2972 9.07472 21.3634 9.1189 21.4192 9.1746C21.475 9.23031 21.5193 9.29646 21.5495 9.36927C21.5797 9.44209 21.5953 9.52014 21.5954 9.59898C21.5954 9.67781 21.5799 9.75589 21.5498 9.82875C21.5197 9.90161 21.4755 9.96782 21.4198 10.0236L19.4434 12L21.4198 13.9752C21.5323 14.0879 21.5955 14.2406 21.5954 14.3998C21.5952 14.559 21.5319 14.7117 21.4192 14.8242C21.3634 14.8799 21.2972 14.9241 21.2244 14.9542C21.1515 14.9843 21.0734 14.9998 20.9946 14.9997C20.8354 14.9996 20.6827 14.9363 20.5702 14.8236L18.595 12.8484L16.6198 14.8236C16.5645 14.8809 16.4983 14.9266 16.4251 14.9581C16.3519 14.9895 16.2731 15.0061 16.1935 15.0068C16.1138 15.0074 16.0348 14.9923 15.961 14.9621C15.8873 14.9319 15.8203 14.8874 15.764 14.831C15.7076 14.7747 15.6631 14.7077 15.6329 14.634C15.6028 14.5602 15.5876 14.4812 15.5883 14.4016C15.589 14.3219 15.6055 14.2432 15.637 14.17C15.6684 14.0968 15.7141 14.0306 15.7714 13.9752L17.7466 12L15.7714 10.0236C15.6589 9.91109 15.5957 9.7585 15.5957 9.5994C15.5957 9.4403 15.6577 9.28772 15.7702 9.1752Z" fill="#DEDEDE"/>
</svg>
