<svg width="24" height="24" viewBox="0 0 24 24" fill="none" xmlns="http://www.w3.org/2000/svg">
<path d="M14.3999 3.6072C14.3999 2.5596 13.1519 2.0148 12.3839 2.7276L7.7375 7.0392C7.62666 7.14236 7.48092 7.1998 7.3295 7.2H4.1999C3.72251 7.2 3.26468 7.38964 2.92711 7.72721C2.58954 8.06478 2.3999 8.52261 2.3999 9V15C2.3999 15.4774 2.58954 15.9352 2.92711 16.2728C3.26468 16.6104 3.72251 16.8 4.1999 16.8H7.3283C7.47956 16.7999 7.62528 16.8569 7.7363 16.9596L12.3839 21.2724C13.1519 21.984 14.3999 21.4404 14.3999 20.3928V3.6072ZM18.3047 5.5524C18.3635 5.49992 18.432 5.45954 18.5064 5.43355C18.5808 5.40756 18.6596 5.39648 18.7382 5.40093C18.8169 5.40539 18.8939 5.4253 18.9649 5.45952C19.0359 5.49375 19.0994 5.54162 19.1519 5.6004C20.7259 7.36042 21.5961 9.6388 21.5961 12C21.5961 14.3612 20.7259 16.6396 19.1519 18.3996C19.0996 18.4591 19.036 18.5077 18.9648 18.5425C18.8936 18.5774 18.8162 18.5977 18.7371 18.6025C18.6579 18.6072 18.5787 18.5962 18.5038 18.5702C18.429 18.5441 18.36 18.5034 18.301 18.4506C18.2419 18.3977 18.1939 18.3337 18.1598 18.2621C18.1256 18.1906 18.106 18.113 18.102 18.0339C18.098 17.9547 18.1097 17.8755 18.1364 17.8009C18.1632 17.7263 18.2045 17.6578 18.2579 17.5992C19.6353 16.0592 20.3967 14.0655 20.3967 11.9994C20.3967 9.93328 19.6353 7.93964 18.2579 6.3996C18.1518 6.28105 18.0971 6.12519 18.1059 5.96631C18.1146 5.80743 18.1862 5.65855 18.3047 5.5524ZM16.8947 15.5196C16.8264 15.4803 16.7664 15.4279 16.7184 15.3655C16.6703 15.303 16.635 15.2317 16.6145 15.1556C16.594 15.0794 16.5887 15 16.5989 14.9219C16.6091 14.8437 16.6346 14.7683 16.6739 14.7C17.1479 13.8791 17.3974 12.9479 17.3974 12C17.3974 11.0521 17.1479 10.1209 16.6739 9.3C16.6305 9.23171 16.6013 9.15534 16.5882 9.0755C16.5751 8.99565 16.5782 8.91397 16.5975 8.83537C16.6167 8.75677 16.6517 8.68288 16.7002 8.61814C16.7488 8.5534 16.8099 8.49915 16.88 8.45866C16.95 8.41816 17.0276 8.39225 17.1079 8.38249C17.1882 8.37274 17.2697 8.37933 17.3474 8.40188C17.4251 8.42442 17.4975 8.46246 17.5601 8.51369C17.6228 8.56492 17.6744 8.6283 17.7119 8.7C18.2914 9.70322 18.5965 10.8413 18.5967 11.9998C18.5969 13.1584 18.2922 14.2966 17.7131 15.3C17.6335 15.4375 17.5027 15.5378 17.3493 15.579C17.1959 15.6201 17.0324 15.5988 16.8947 15.5196Z" fill="#DEDEDE"/>
</svg>
